<?xml version="1.0" encoding="UTF-8"?>
<svg xmlns="http://www.w3.org/2000/svg" version="1.1" xmlns:cc="http://creativecommons.org/ns#" xmlns:dc="http://purl.org/dc/elements/1.1/" xmlns:inkscape="http://www.inkscape.org/namespaces/inkscape" xmlns:rdf="http://www.w3.org/1999/02/22-rdf-syntax-ns#" xmlns:sodipodi="http://sodipodi.sourceforge.net/DTD/sodipodi-0.dtd" xmlns:svg="http://www.w3.org/2000/svg" viewBox="0 0 738.5 897.5">
  <defs>
    <style>
      .cls-1 {
        fill: #0087dd;
      }

      .cls-2 {
        fill: #fff;
      }
    </style>
  </defs>
  <!-- Generator: Adobe Illustrator 28.7.5, SVG Export Plug-In . SVG Version: 1.2.0 Build 176)  -->
  <g>
    <g id="_レイヤー_1" data-name="レイヤー_1">
      <rect class="cls-2" y="-.5" width="738.5" height="449.3"/>
      <g id="svg2">
        <sodipodi:namedview id="namedview3105" bordercolor="#666666" borderopacity="1.0" inkscape:current-layer="svg2" inkscape:cx="392.10191" inkscape:cy="471.78344" inkscape:deskcolor="#d1d1d1" inkscape:pagecheckerboard="0" inkscape:pageopacity="0.0" inkscape:showpageshadow="2" inkscape:window-height="1001" inkscape:window-maximized="1" inkscape:window-width="1920" inkscape:window-x="-9" inkscape:window-y="-9" inkscape:zoom="0.87222222" pagecolor="#ffffff" showgrid="false"/>
        <g id="layer3">
          <g id="g4025">
            <path id="rect3923" class="cls-1" d="M0,649.6v104.8c.2,40.7,26.9,61,55.8,67.7,58,13.4,204.7-19.6,259,11.3,17.7,10.1,39.8,22,51,64.1,9.7-42,31.3-56.7,56-66.8,68.2-27.7,198.3,5.9,261.2-11.1,30.5-8.2,55.3-24.6,55.5-65.3v-104.8H0Z"/>
          </g>
        </g>
        <rect class="cls-1" y="450.2" width="738.5" height="298.6"/>
        <path d="M251.5,509.1v78.1l235.4,96.1v-78.1l-235.4-96.1ZM334.4,148.8v600h69.7V148.8h-69.7,0ZM251.5,194.4v69.7h236.6v-69.7h-236.6ZM184.2,396.2h370v-69.7H184.2v69.7Z"/>
      </g>
    </g>
  </g>
</svg>